<svg width="18" height="18" viewBox="0 0 18 18" fill="none" xmlns="http://www.w3.org/2000/svg">
<path fill-rule="evenodd" clip-rule="evenodd" d="M8.125 0C3.63769 0 0 3.63769 0 8.125C0 12.6123 3.63769 16.25 8.125 16.25C10.1437 16.25 11.9904 15.5138 13.4114 14.2953L16.8497 17.7336C17.0938 17.9777 17.4895 17.9777 17.7336 17.7336C17.9777 17.4895 17.9777 17.0938 17.7336 16.8497L14.2953 13.4114C15.5138 11.9904 16.25 10.1437 16.25 8.125C16.25 3.63769 12.6123 0 8.125 0ZM1.25 8.125C1.25 4.32804 4.32804 1.25 8.125 1.25C11.922 1.25 15 4.32804 15 8.125C15 11.922 11.922 15 8.125 15C4.32804 15 1.25 11.922 1.25 8.125Z" fill="#161616"/>
</svg>
